<?xml version="1.0" encoding="utf-8"?>
<!-- Generator: Adobe Illustrator 28.3.0, SVG Export Plug-In . SVG Version: 6.00 Build 0)  -->
<svg version="1.1" id="图层_1" xmlns="http://www.w3.org/2000/svg" xmlns:xlink="http://www.w3.org/1999/xlink" x="0px" y="0px"
	 viewBox="0 0 409.6 409.6" style="enable-background:new 0 0 409.6 409.6;" xml:space="preserve">
<style type="text/css">
	.st0{fill:#FEFEFE;}
	.st1{fill:#77428C;}
	.st2{fill:#9268A3;}
	.st3{fill:#B598C1;}
	.st4{fill:#CDBAD5;}
	.st5{fill:#77428D;}
	.st6{fill:#DACCE0;}
	.st7{fill:#DBCDE0;}
</style>
<g>
	<g>
		<path class="st0" d="M409.52,233.13c0,57.73-0.02,115.47,0.08,173.2c0,2.73-0.54,3.27-3.27,3.27
			c-134.35-0.09-268.71-0.09-403.06,0c-2.73,0-3.27-0.54-3.27-3.27C0.09,271.98,0.09,137.62,0,3.27C0,0.54,0.54,0,3.27,0
			c134.35,0.09,268.71,0.09,403.06,0c2.73,0,3.27,0.54,3.27,3.27c-0.1,66.25-0.08,132.49-0.08,198.74c-1.8,0-1.61-1.49-1.8-2.56
			c-0.3-1.7-0.56-3.41-0.88-5.11c-0.52-2.81-2.07-4.64-5.09-4.62c-2.6,0.01-4.71,2.34-4.57,5.53c0.18,4.24,0.35,8.51,0.79,12.71
			c1.15,10.95,0.04,21.78-1.4,32.55c-3.85,28.68-13.78,55.14-30.13,79.06c-16.1,23.56-37.11,41.42-62.77,54.03
			c-22.75,11.18-46.8,17.66-71.87,19.97c-39.45,3.64-78.12,0.17-115.03-15.44c-17.38-7.35-33.33-17.02-47.42-29.76
			c-14.79-13.37-26.35-29.04-35.78-46.53c-11.74-21.77-18.39-45.05-20.72-69.48c-2.15-22.55,0.18-44.86,6.64-66.63
			c8.61-29.02,22.03-55.57,41.11-79.16c10.03-12.4,21.55-23.11,35.38-31.24c11.32-6.66,23.82-9.6,36.45-12.41
			c16.44-3.65,32.87-3.69,49.54-1.92c12.66,1.35,25.41,1.57,38.2,0.6c10.58-0.8,21.13-2.39,31.81-1.9
			c18.07,0.82,35.69,3.94,52.46,10.79c15.69,6.41,28.52,16.95,39.74,29.45c11.31,12.61,21.29,26.2,29.13,41.3
			c6.76,13.03,12.32,26.52,16.52,40.58c0.53,1.78,1,3.59,1.73,5.31c1.15,2.74,3.24,3.97,6.07,3.08c2.84-0.89,3.95-3.25,3.21-6.02
			c-1.29-4.88-2.75-9.72-4.45-14.49c-3.5-9.78-7.79-19.22-12.16-28.63c-2.16-4.64-2.2-5.23,1.36-8.72
			c12.36-12.1,18.6-27.07,18.57-44.05c-0.06-33.99-25.63-59.45-55.84-62.33c-23.66-2.26-42.6,6.49-57.13,25.06
			c-2.06,2.63-4.17,3.69-7.5,2.9c-9.71-2.32-19.57-3.82-29.53-4.59c-5.84-0.45-11.69,0.33-17.48,0.92
			c-10.19,1.05-20.42,1.75-30.6,1.85c-10.72,0.1-21.49-0.67-32.19-1.93c-13.85-1.63-27.65-0.88-41.12,2.65
			c-7.07,1.85-11.67,0.93-16.62-5.32C104.38,12.66,87.99,5.56,69.34,5.41C50.2,5.26,33.86,12.75,21.23,27.47
			C11.39,38.93,6.29,52.43,6.26,67.37c-0.04,16.07,5.16,30.56,16.24,42.59c0.18,0.2,0.37,0.38,0.56,0.57
			c5.54,5.58,5.47,5.55,2.13,12.53c-11.38,23.81-19.49,48.62-22.26,74.98c-2.55,24.24,0.19,48,6.76,71.39
			c7.26,25.87,19.41,49.23,36.67,69.75c13.19,15.69,28.83,28.66,46.82,38.65c24.75,13.75,51.31,21.73,79.35,25.12
			c11.76,1.42,23.55,2.51,35.36,2.21c31.61-0.8,62.46-5.75,91.66-18.57c36.13-15.85,64.19-40.67,83.62-75.16
			c12.84-22.8,20.64-47.17,23.8-73.1C407.21,236.41,406.82,233.95,409.52,233.13z"/>
		<path class="st1" d="M409.52,233.13c-2.16,3.25-1.57,7.09-2.19,10.65c-13.2,75.98-54.55,128.44-129.12,151.55
			c-52.97,16.42-106.26,14.93-158.53-4.13c-42.87-15.64-75.06-43.94-96.26-84.5c-16.1-30.8-23.71-63.65-22.26-98.34
			c1.29-30.86,10.13-59.84,24.09-87.27c1.86-3.65,1.27-5.41-1.45-8.28C5.73,93.75,0.26,71.28,9.15,46.61
			C18.1,21.79,36.63,7.43,62.98,4.83c23.79-2.35,43.1,6.83,57.49,25.97c1.6,2.12,2.93,2.7,5.55,2.12
			c14.96-3.33,30.02-5.67,45.44-4.08c6.87,0.71,13.77,1.17,20.66,1.67c15.18,1.1,30.29,0.11,45.37-1.55
			c15.67-1.72,31.03,0.31,46.24,3.88c3,0.7,4.65,0.08,6.54-2.47c12.74-17.18,30.16-25.73,51.34-26.05
			c28.33-0.42,54.52,19.78,61.35,47.33c5.91,23.82,0.04,44.72-17.34,62.13c-2.23,2.23-2.32,3.73-0.93,6.37
			c6.98,13.33,12.4,27.3,16.69,41.72c0.34,1.14,0.74,2.3,0.83,3.47c0.24,3.22-1.43,5.47-4.34,6.38c-2.98,0.93-5.62-0.08-6.96-3.07
			c-0.97-2.17-1.62-4.49-2.3-6.77c-10.11-33.88-27.17-63.64-52.48-88.51c-16.13-15.85-35.41-25.19-57.65-29.37
			c-15.58-2.93-31.01-4.1-46.76-2.28c-17.62,2.03-35.34,2.18-52.94-0.03c-17.97-2.25-35.42,0.02-52.98,3.69
			c-23.95,5-43.14,17.61-58.91,35.65c-27.49,31.43-44.76,67.87-51.6,109.11c-3.63,21.89-2.46,43.68,2.36,65.32
			c6.32,28.37,18.51,53.92,37.08,76.26c18.32,22.04,41.32,37.87,68.13,47.65c52,18.96,104.59,19.55,157.24,2.72
			c24.9-7.96,47.01-21.02,65.64-39.54c20.08-19.96,33.99-43.73,42.59-70.63c7.79-24.36,10.74-49.26,7.81-74.75
			c-0.12-1.05-0.16-2.13-0.08-3.19c0.26-3.16,1.85-5.39,5.11-5.62c3.42-0.24,5.84,1.4,6.75,4.9c0.75,2.88-0.05,6.04,1.59,8.75
			c0,2.39,0,4.79,0,7.18c-0.65,1.6-0.65,3.19,0,4.79c0,2.93,0,5.85,0,8.78c-0.79,0.98-0.25,2.13-0.41,3.19
			c0.16,1.06-0.37,2.21,0.41,3.19C409.52,230.47,409.52,231.8,409.52,233.13z"/>
		<path class="st2" d="M409.52,213.98c-1.15-1.6-1.26-3.19,0-4.79C409.52,210.79,409.52,212.38,409.52,213.98z"/>
		<path class="st3" d="M408.85,226c-0.06-1.14-0.53-2.36,0.68-3.24c0,1.06,0,2.13,0,3.19C409.32,226.29,409.09,226.31,408.85,226z"
			/>
		<path class="st4" d="M408.85,226c0.23,0,0.45-0.02,0.68-0.04c0,1.06,0,2.13,0,3.19C408.1,228.35,408.93,227.07,408.85,226z"/>
		<path class="st1" d="M280.47,241.38c-0.24,16.69-0.91,34.18-6.45,51.1c-6.02,18.41-18.22,30.2-37.4,33.42
			c-22.01,3.69-44.21,4.06-66.14-0.78c-16.81-3.71-27.59-14.56-33.37-30.58c-5.91-16.39-6.97-33.48-7.1-50.65
			c-0.15-19.04,0.69-38.02,6.45-56.38c8.51-27.15,27.29-41.91,55.33-45.06c13.15-1.48,26.22-0.9,39.15,2.42
			c21.62,5.55,35,19.69,42.18,40.2C279.39,203,280.2,221.73,280.47,241.38z"/>
		<path class="st5" d="M120.83,156.49c-8.75-0.01-15.36-6.63-15.36-15.37c0.01-8.65,6.83-15.48,15.39-15.4
			c8.57,0.07,15.41,6.91,15.44,15.45C136.33,149.74,129.51,156.49,120.83,156.49z"/>
		<path class="st5" d="M304.92,141.2c-0.03,8.74-6.67,15.32-15.43,15.29c-8.66-0.02-15.48-6.85-15.39-15.41
			c0.09-8.55,6.95-15.34,15.52-15.37C298.18,125.69,304.95,132.53,304.92,141.2z"/>
		<path class="st0" d="M376.99,104.74c-3.18-4.72-6.32-9.46-9.53-14.14c-0.98-1.43-0.8-2.6,0.14-3.99
			c7.97-11.78,8.2-24.08,0.79-35.89c-7.13-11.35-18.15-15.84-31.46-14.32c-5.78,0.66-11.02,2.86-15.5,6.6
			c-1.28,1.07-2.2,1.51-3.79,0.6c-5.07-2.9-10.5-5.01-16.06-6.85c5.47-10.36,25.03-21.73,44.31-20.02
			c20.01,1.78,38.54,16.51,44.62,35.78C396.37,71.07,390.53,93.78,376.99,104.74z"/>
		<path class="st0" d="M33.2,105.08C20.43,91.25,14.41,75.52,18.81,57.11c6.16-25.74,27.49-41.67,53.72-40.27
			c13.82,0.74,25.43,6.88,34.81,17.11c1.45,1.58,2.21,2.69-0.82,3.62c-4.68,1.43-9.21,3.38-13.44,5.89
			c-1.62,0.96-2.66,0.67-4.15-0.49c-12.8-9.93-30.12-9.38-42.24,1.93c-10.07,9.4-13.66,25.06-5.5,39.05
			c2.58,4.42,1.97,6.87-0.74,10.3C37.84,97.55,35.73,101.25,33.2,105.08z"/>
		<path class="st0" d="M332.01,51.02c7.67-4.1,16.26-3.17,22.56,2.44c6.03,5.38,8.16,14.41,5.19,21.88
			c-0.91,2.3-1.57,3.87-4.02,0.96c-6.7-7.92-14.1-15.18-22.15-21.75C332.99,53.4,330.88,52.93,332.01,51.02z"/>
		<path class="st0" d="M76.79,54.51C68.7,61.24,61.03,68.4,54.35,76.54c-2.16,2.63-2.73,1.1-3.57-0.83
			c-3.14-7.24-1.15-16.52,4.74-21.99c6.28-5.83,15.09-6.87,22.86-2.71C79.5,52.93,77.46,53.41,76.79,54.51z"/>
		<path class="st6" d="M76.79,54.51c0.3-1.27,1.74-2.02,1.59-3.5C80.28,52.44,80.18,52.65,76.79,54.51z"/>
		<path class="st7" d="M332.01,51.02c-0.15,1.48,1.33,2.23,1.58,3.54C330.23,52.65,330.13,52.43,332.01,51.02z"/>
		<path class="st0" d="M205.34,243.5c7.34,11.15,17.13,18.11,30.06,20.28c2.21,0.37,4.49,0.53,6.73,0.53
			c3.52-0.01,5.98-2.26,6.21-5.41c0.24-3.29-1.69-5.87-5.23-6.41c-3.4-0.53-6.84-0.69-10.18-1.76
			c-11.91-3.78-20.68-14.62-21.34-27.05c-0.36-6.76-0.18-13.56-0.29-20.33c-0.03-1.69,0.37-2.68,2.32-2.94
			c8.72-1.15,16.41-5.01,23.99-9.23c5.79-3.23,11.61-6.41,17.81-8.87c2.19-0.87,3.11-0.6,4.08,1.69c3.81,9.02,5.89,18.44,6.96,28.11
			c2.32,20.95,2.67,41.91-0.68,62.8c-1.26,7.88-3.34,15.57-7.36,22.58c-6.64,11.6-17.5,16.32-30.04,17.59
			c-16.03,1.62-32.15,2.03-48.13-0.36c-19.54-2.92-29.77-12.84-34.09-32.19c-4.87-21.78-4.69-43.76-2.68-65.83
			c1.02-11.17,2.95-22.07,7.31-32.49c0.98-2.34,1.94-2.79,4.3-1.84c6.56,2.63,12.69,6.06,18.84,9.46
			c7.12,3.94,14.41,7.37,22.56,8.58c1.22,0.18,2.57,0.24,2.51,1.89c-0.33,9.26,1.31,18.66-1.37,27.76
			c-3.69,12.52-14.34,20.98-27.36,22.14c-1.19,0.11-2.41,0.1-3.55,0.41c-3.25,0.88-5.03,3.04-4.63,6.45
			c0.39,3.36,2.51,5.26,5.92,5.26c12.35,0.02,22.76-4.59,31.26-13.48C201.37,248.66,203.14,246.18,205.34,243.5z"/>
		<path class="st0" d="M160.52,170.82c16.72-21.49,71.72-21.97,89.37-0.05c-10.63,3.88-19.75,10.59-30.12,14.8
			c-10.06,4.08-20.16,3.86-30.12-0.39C179.69,180.93,170.84,174.48,160.52,170.82z"/>
	</g>
</g>
</svg>
